<?xml version="1.0" encoding="utf-8"?>
<!-- Generator: Adobe Illustrator 16.0.0, SVG Export Plug-In . SVG Version: 6.00 Build 0)  -->
<!DOCTYPE svg PUBLIC "-//W3C//DTD SVG 1.1//EN" "http://www.w3.org/Graphics/SVG/1.1/DTD/svg11.dtd">
<svg version="1.1" xmlns="http://www.w3.org/2000/svg" xmlns:xlink="http://www.w3.org/1999/xlink" x="0px" y="0px"
	 width="415.492px" height="182.516px" viewBox="9.675 164.742 415.492 182.516"
	 enable-background="new 9.675 164.742 415.492 182.516" xml:space="preserve">
<g id="Layer_2" display="none">
	<rect x="0" display="inline" fill="#1E252B" width="512" height="668.5"/>
</g>
<g id="Layer_1">
	<path fill="#E63946" d="M15.448,319.099c5.263,18.667,21.363,22.082,22.438,22.737c26.497,7.218,175.019,7.239,201.914,0
		c18.42-5.327,21.803-21.664,22.436-22.737c7.014-37.313,7.477-85.958-0.322-128.298l0.322,2.104
		c-5.262-18.667-21.362-22.083-22.436-22.737c-26.143-7.1-175.051-7.369-201.914,0c-18.42,5.338-21.804,21.663-22.438,22.737
		C7.94,232.12,7.564,277.112,15.448,319.099z M113.037,295.222V216.89l67.301,39.225L113.037,295.222z"/>
	<g>
		<path fill="#FFFFFF" d="M352.042,284.245h-10.67l-6.035-19.68H314.87l-5.772,19.68H298.69l20.467-66.91h12.42L352.042,284.245z
			 M333.675,256.781l-5.248-17.492c-1.225-4.373-2.361-9.096-3.323-13.207h-0.175c-0.962,4.111-2.012,9.009-3.148,13.12
			l-5.336,17.58H333.675z"/>
		<path fill="#FFFFFF" d="M361.314,218.123c4.023-0.7,9.358-1.312,16.269-1.312c8.222,0,14.431,1.749,18.454,5.335
			c3.762,3.236,6.035,8.309,6.035,14.432c0,16.268-12.944,21.866-25.015,21.866c-2.099,0-4.023-0.087-5.685-0.438v26.239h-10.059
			V218.123z M371.372,249.872c1.486,0.438,3.323,0.525,5.685,0.525c9.271,0,14.869-4.811,14.869-13.382
			c0-8.134-5.598-12.245-13.731-12.245c-3.149,0-5.511,0.35-6.822,0.612V249.872z"/>
		<path fill="#FFFFFF" d="M412.48,217.335h10.146v66.91H412.48V217.335z"/>
	</g>
</g>
</svg>
